<svg height="512pt" viewBox="0 0 512 512" width="512pt" xmlns="http://www.w3.org/2000/svg"><path d="m512 256c0 6.511719-.238281 12.949219-.71875 19.339844-1.820312 24.320312-7.03125 47.699218-15.191406 69.660156-2.851563 7.710938-6.058594 15.238281-9.628906 22.570312-41.449219 85.488282-129.070313 144.429688-230.460938 144.429688-5.710938 0-11.378906-.191406-17-.558594-133.460938-8.75-239-119.769531-239-255.441406 0-141.378906 114.621094-256 256-256s256 114.621094 256 256zm0 0" fill="#98efff"/><path d="m511.28125 275.339844c-1.820312 24.320312-7.03125 47.699218-15.191406 69.660156-2.851563 7.710938-6.058594 15.238281-9.628906 22.570312-41.449219 85.488282-129.070313 144.429688-230.460938 144.429688-5.710938 0-11.378906-.191406-17-.558594v-.082031l-108-107 10-40s8.398438-113.949219 22.578125-133.078125l-16.96875-16.980469 20.78125-21.640625 17.050781 17.050782c9.820313-7.820313 76.917969-24.882813 79.558594-24.699219l-23-22.53125 30-60 81.789062 82 33.820313-33.820313 21.210937 21.21875zm0 0" fill="#25dcff"/><path d="m256 184.726562c-63.511719 0-115 51.488282-115 115v85h230v-85c0-63.511718-51.488281-115-115-115zm0 0" fill="#fa1b41"/><path d="m371 299.726562v85h-115v-200c63.511719 0 115 51.480469 115 115zm0 0" fill="#d1093a"/><path d="m131 364.359375h250v40h-250zm0 0" fill="#ffffde"/><path d="m256 364.359375h125v40h-125zm0 0" fill="#e5e5c8"/><path d="m241 102.484375h30v60h-30zm0 0" fill="#fa1b41"/><path d="m256 102.484375h15v60h-15zm0 0" fill="#d1093a"/><g fill="#fa1b41"><path d="m386.605469 150.660156 21.210937 21.210938-42.425781 42.425781-21.210937-21.210937zm0 0"/><path d="m167.820312 193.089844-21.210937 21.210937-42.425781-42.425781 21.210937-21.210938zm0 0"/></g></svg>